<?xml version="1.0" standalone="no"?>
<!DOCTYPE svg PUBLIC "-//W3C//DTD SVG 20010904//EN"
 "http://www.w3.org/TR/2001/REC-SVG-20010904/DTD/svg10.dtd">
<svg version="1.0" xmlns="http://www.w3.org/2000/svg"
 width="1452.000000pt" height="1452.000000pt" viewBox="0 0 1452.000000 1452.000000"
 preserveAspectRatio="xMidYMid meet">
<metadata>
Created by potrace 1.14, written by Peter Selinger 2001-2017
</metadata>
<g transform="translate(0.000000,1452.000000) scale(0.100000,-0.100000)"
fill="#000000" stroke="none">
<path d="M7077 12744 c-1 -1 -51 -5 -112 -9 -60 -3 -121 -8 -135 -10 -14 -1
-54 -6 -90 -10 -36 -3 -118 -15 -184 -26 -159 -26 -174 -28 -226 -40 -25 -6
-56 -13 -70 -15 -234 -45 -660 -196 -940 -332 -214 -105 -367 -194 -573 -334
-338 -229 -690 -553 -932 -858 -33 -41 -62 -77 -66 -80 -13 -12 -121 -164
-196 -275 -165 -248 -264 -434 -419 -790 -35 -81 -142 -399 -159 -472 -2 -10
-12 -45 -21 -78 -29 -107 -78 -347 -89 -435 -4 -30 -8 -57 -10 -60 -2 -3 -6
-38 -10 -78 -3 -41 -8 -82 -10 -91 -19 -97 -26 -574 -12 -776 8 -113 29 -296
47 -397 15 -87 28 -160 35 -188 3 -14 8 -38 11 -55 26 -149 157 -570 224 -720
5 -11 23 -54 41 -95 228 -539 628 -1100 1075 -1507 67 -60 122 -109 140 -123
10 -8 53 -42 94 -76 150 -121 373 -274 548 -375 189 -108 557 -282 645 -304
15 -4 30 -11 33 -16 3 -5 14 -9 25 -9 10 0 27 -4 37 -9 17 -10 49 -22 67 -26
6 -2 63 -19 129 -39 226 -69 464 -121 696 -151 25 -3 56 -8 70 -10 14 -2 59
-7 100 -10 41 -3 102 -8 135 -11 79 -8 492 -7 575 0 286 26 404 42 600 82 535
110 1057 323 1520 623 93 60 287 198 336 240 17 14 51 42 75 61 310 247 660
639 901 1010 299 458 526 1010 627 1520 6 30 14 66 16 80 12 59 35 212 45 295
22 186 25 257 25 530 0 285 -6 387 -30 570 -3 22 -8 57 -10 77 -27 211 -99
512 -185 768 -216 647 -566 1217 -1050 1710 -290 296 -615 545 -995 762 -46
26 -354 179 -400 198 -11 4 -40 17 -65 28 -137 60 -387 143 -595 197 -127 32
-220 53 -320 70 -16 3 -55 10 -85 15 -30 5 -77 12 -105 15 -27 3 -61 8 -75 10
-113 17 -290 28 -508 29 -106 1 -194 1 -195 0z"/>
</g>
</svg>
