{
  "accessors": [
    {
      "bufferView": 2,
      "componentType": 5126,
      "count": 20144,
      "max": [
        1.366129994392395,
        1.2700879573822021,
        3.709918975830078
      ],
      "min": [
        -1.391672968864441,
        -1.1631840467453003,
        -0.000534999999217689
      ],
      "type": "VEC3"
    },
    {
      "bufferView": 2,
      "byteOffset": 241728,
      "componentType": 5126,
      "count": 20144,
      "max": [
        1.0,
        1.0,
        1.0
      ],
      "min": [
        -1.0,
        -1.0,
        -1.0
      ],
      "type": "VEC3"
    },
    {
      "bufferView": 3,
      "componentType": 5126,
      "count": 20144,
      "max": [
        0.9999998211860657,
        1.0,
        1.0,
        1.0
      ],
      "min": [
        -0.9999998807907104,
        -1.0,
        -1.0,
        -1.0
      ],
      "type": "VEC4"
    },
    {
      "bufferView": 1,
      "componentType": 5126,
      "count": 20144,
      "max": [
        0.9881470203399658,
        0.982679009437561
      ],
      "min": [
        0.0003699999942909926,
        0.0003699999942909926
      ],
      "type": "VEC2"
    },
    {
      "bufferView": 0,
      "componentType": 5125,
      "count": 112512,
      "type": "SCALAR"
    }
  ],
  "asset": {
    "extras": {
      "author": "augusto.v (https://sketchfab.com/august.varustin)",
      "license": "CC-BY-4.0 (http://creativecommons.org/licenses/by/4.0/)",
      "source": "https://sketchfab.com/3d-models/chair-2e92000d99d74c8a993badf99be4435a",
      "title": "Chair"
    },
    "generator": "Sketchfab-11.67.0",
    "version": "2.0"
  },
  "bufferViews": [
    {
      "buffer": 0,
      "byteLength": 450048,
      "name": "floatBufferViews",
      "target": 34963
    },
    {
      "buffer": 0,
      "byteLength": 161152,
      "byteOffset": 450048,
      "byteStride": 8,
      "name": "floatBufferViews",
      "target": 34962
    },
    {
      "buffer": 0,
      "byteLength": 483456,
      "byteOffset": 611200,
      "byteStride": 12,
      "name": "floatBufferViews",
      "target": 34962
    },
    {
      "buffer": 0,
      "byteLength": 322304,
      "byteOffset": 1094656,
      "byteStride": 16,
      "name": "floatBufferViews",
      "target": 34962
    }
  ],
  "buffers": [
    {
      "byteLength": 1416960,
      "uri": "scene.bin"
    }
  ],
  "images": [
    {
      "uri": "textures/Tool_baseColor.png"
    },
    {
      "uri": "textures/Tool_metallicRoughness.png"
    },
    {
      "uri": "textures/Tool_normal.png"
    }
  ],
  "materials": [
    {
      "doubleSided": true,
      "name": "Tool",
      "normalTexture": {
        "index": 2
      },
      "pbrMetallicRoughness": {
        "baseColorTexture": {
          "index": 0
        },
        "metallicFactor": 0.0,
        "metallicRoughnessTexture": {
          "index": 1
        }
      }
    }
  ],
  "meshes": [
    {
      "name": "Object_0",
      "primitives": [
        {
          "attributes": {
            "NORMAL": 1,
            "POSITION": 0,
            "TANGENT": 2,
            "TEXCOORD_0": 3
          },
          "indices": 4,
          "material": 0,
          "mode": 4
        }
      ]
    }
  ],
  "nodes": [
    {
      "children": [
        1
      ],
      "matrix": [
        0.8031130433082581,
        -1.323000877348989e-16,
        0.5958266258239746,
        0.0,
        0.5958266258239746,
        1.7832691841152172e-16,
        -0.8031130433082581,
        0.0,
        0.0,
        1.0,
        2.220446049250313e-16,
        0.0,
        -0.03436422720551491,
        6.475930841228649e-19,
        -0.002916499972343445,
        1.0
      ],
      "name": "Sketchfab_model"
    },
    {
      "children": [
        2
      ],
      "name": "chair.obj.cleaner.materialmerger.gles"
    },
    {
      "mesh": 0,
      "name": "Object_2"
    }
  ],
  "samplers": [
    {
      "magFilter": 9729,
      "minFilter": 9987,
      "wrapS": 10497,
      "wrapT": 10497
    }
  ],
  "scene": 0,
  "scenes": [
    {
      "name": "Sketchfab_Scene",
      "nodes": [
        0
      ]
    }
  ],
  "textures": [
    {
      "sampler": 0,
      "source": 0
    },
    {
      "sampler": 0,
      "source": 1
    },
    {
      "sampler": 0,
      "source": 2
    }
  ]
}
