<?xml version="1.0" encoding="utf-8"?>
<!-- Generator: Adobe Illustrator 16.0.0, SVG Export Plug-In . SVG Version: 6.00 Build 0)  -->
<!DOCTYPE svg PUBLIC "-//W3C//DTD SVG 1.1//EN" "http://www.w3.org/Graphics/SVG/1.1/DTD/svg11.dtd">
<svg version="1.1" id="Layer_1" xmlns="http://www.w3.org/2000/svg" xmlns:xlink="http://www.w3.org/1999/xlink" x="0px" y="0px"
	 width="177.38px" height="53.76px" viewBox="0 0 177.38 53.76" enable-background="new 0 0 177.38 53.76" xml:space="preserve">
<g>
	<g>
		<path fill="#00A19C" d="M4.729,26.555c-0.441,0-0.882-0.168-1.219-0.505c-0.674-0.673-0.674-1.764,0-2.438l5.76-5.76
			c0.674-0.673,1.764-0.673,2.438,0s0.674,1.765,0,2.438l-5.76,5.76C5.611,26.387,5.17,26.555,4.729,26.555z"/>
		<path fill="#00A19C" d="M13.139,17.397c0,0-0.568-0.034-0.774,0.211c-0.353,0.418-0.332,0.704-0.332,0.704l-0.831-0.81
			c0,0,0.271-0.014,0.659-0.399c0.264-0.261,0.211-0.774,0.211-0.774L13.139,17.397z"/>
		<path fill="#00A19C" d="M14.487,17.397h-1.993c-0.232,0-0.422-0.189-0.422-0.422v-1.993c0-0.233,0.189-0.422,0.422-0.422h1.993
			c0.232,0,0.422,0.188,0.422,0.422v1.993C14.909,17.208,14.72,17.397,14.487,17.397z"/>
	</g>
	<g>
		<path fill="#00A19C" d="M11.202,34.676c-0.441,0-0.882-0.168-1.219-0.504c-0.674-0.674-0.674-1.766,0-2.438l5.759-5.761
			c0.674-0.674,1.765-0.674,2.438,0c0.673,0.673,0.673,1.765,0,2.438l-5.76,5.76C12.084,34.508,11.643,34.676,11.202,34.676z"/>
		<path fill="#00A19C" d="M19.612,25.518c0,0-0.569-0.033-0.774,0.211c-0.353,0.418-0.332,0.704-0.332,0.704l-0.832-0.81
			c0,0,0.271-0.014,0.66-0.398c0.263-0.262,0.211-0.774,0.211-0.774L19.612,25.518z"/>
		<path fill="#00A19C" d="M20.96,25.518h-1.993c-0.232,0-0.422-0.188-0.422-0.422v-1.993c0-0.232,0.189-0.422,0.422-0.422h1.993
			c0.233,0,0.422,0.189,0.422,0.422v1.993C21.382,25.329,21.193,25.518,20.96,25.518z"/>
	</g>
	<g>
		<path fill="#00A19C" d="M6.146,32.449c-0.441,0-0.883-0.168-1.219-0.504c-0.674-0.674-0.674-1.766,0-2.438l4.263-4.264
			c0.674-0.674,1.765-0.674,2.438,0c0.673,0.674,0.673,1.765,0,2.438l-4.264,4.264C7.028,32.281,6.587,32.449,6.146,32.449z"/>
		<path fill="#00A19C" d="M13.061,24.788c0,0-0.569-0.033-0.775,0.211c-0.352,0.418-0.332,0.704-0.332,0.704l-0.831-0.81
			c0,0,0.271-0.014,0.659-0.398c0.264-0.261,0.211-0.774,0.211-0.774L13.061,24.788z"/>
		<path fill="#00A19C" d="M14.408,24.788h-1.993c-0.232,0-0.422-0.188-0.422-0.422v-1.993c0-0.232,0.189-0.422,0.422-0.422h1.993
			c0.232,0,0.422,0.189,0.422,0.422v1.993C14.83,24.6,14.641,24.788,14.408,24.788z"/>
	</g>
	<g>
		<g>
			<path fill="#0F213D" d="M41.333,48.949c-0.201,0.213-0.446,0.383-0.734,0.506c-0.289,0.123-0.612,0.186-0.969,0.186
				c-0.37,0-0.698-0.063-0.983-0.186s-0.529-0.293-0.73-0.506c-0.201-0.209-0.354-0.453-0.457-0.736
				c-0.104-0.281-0.156-0.582-0.156-0.9c0-0.648,0.205-1.193,0.613-1.635c0.201-0.207,0.445-0.373,0.73-0.496
				s0.613-0.186,0.983-0.186s0.697,0.063,0.983,0.186c0.285,0.123,0.525,0.289,0.72,0.496c0.201,0.215,0.355,0.461,0.463,0.74
				c0.106,0.279,0.16,0.578,0.16,0.895c0,0.318-0.054,0.619-0.16,0.9C41.688,48.496,41.534,48.74,41.333,48.949z M39.63,48.705
				c0.39,0,0.691-0.137,0.905-0.408c0.214-0.273,0.321-0.602,0.321-0.984c0-0.193-0.028-0.375-0.083-0.545
				c-0.055-0.168-0.135-0.314-0.238-0.438c-0.104-0.123-0.232-0.221-0.385-0.293c-0.152-0.07-0.326-0.105-0.521-0.105
				c-0.195,0-0.368,0.035-0.521,0.105c-0.153,0.072-0.281,0.17-0.385,0.293c-0.104,0.123-0.184,0.27-0.238,0.438
				c-0.056,0.17-0.083,0.352-0.083,0.545c0,0.383,0.106,0.711,0.321,0.984C38.938,48.568,39.24,48.705,39.63,48.705z M44.604,53.426
				h-5.802c-0.104,0-0.174-0.02-0.21-0.059c-0.035-0.037-0.054-0.109-0.054-0.213v-2.648h1.11v1.986h4.955V53.426z M44.399,51.305
				h-1.09v-6.426h1.09V51.305z"/>
			<path fill="#0F213D" d="M53.54,49.543h-8.031v-0.936h3.037v-1.645h1.13v1.645h3.864V49.543z M52.752,51.977
				c0,0.551-0.27,0.986-0.809,1.305c-0.538,0.316-1.347,0.477-2.424,0.477c-1.084,0-1.894-0.16-2.429-0.477
				c-0.535-0.318-0.803-0.754-0.803-1.305c0-0.553,0.269-0.986,0.808-1.305s1.347-0.477,2.424-0.477
				c1.071,0,1.877,0.158,2.419,0.477S52.752,51.424,52.752,51.977z M51.33,48.082c0.071-0.35,0.125-0.691,0.161-1.021
				c0.035-0.332,0.057-0.672,0.063-1.023h-5.198v-0.934h6.064c0.182,0,0.272,0.092,0.272,0.271
				c-0.013,0.293-0.034,0.596-0.063,0.906c-0.029,0.313-0.06,0.604-0.093,0.877l-0.058,0.379c-0.014,0.111-0.026,0.207-0.039,0.293
				c-0.014,0.051-0.021,0.098-0.024,0.141c-0.004,0.041-0.009,0.08-0.015,0.111H51.33z M50.971,52.688
				c0.363-0.15,0.545-0.391,0.545-0.721c0-0.313-0.181-0.543-0.54-0.691c-0.36-0.15-0.846-0.225-1.456-0.225
				c-0.629,0-1.119,0.074-1.47,0.225c-0.351,0.148-0.525,0.379-0.525,0.691c0,0.33,0.175,0.57,0.525,0.721
				c0.351,0.148,0.841,0.223,1.47,0.223C50.098,52.91,50.581,52.836,50.971,52.688z"/>
			<path fill="#0F213D" d="M58.952,51.752c-0.467-0.299-0.883-0.645-1.246-1.037s-0.626-0.803-0.788-1.23
				c-0.169,0.461-0.448,0.912-0.837,1.354c-0.202,0.227-0.404,0.434-0.608,0.623c-0.205,0.188-0.411,0.355-0.618,0.506l-0.906-0.73
				c0.357-0.215,0.684-0.461,0.979-0.74c0.296-0.279,0.546-0.594,0.75-0.943c0.204-0.352,0.363-0.736,0.477-1.158
				s0.171-0.883,0.171-1.383v-0.711h-1.753v-0.916h4.702v0.916h-1.771v0.76c0,0.863,0.177,1.625,0.53,2.287s0.92,1.213,1.699,1.654
				L58.952,51.752z M61.513,53.592h-1.101v-8.713h1.101V53.592z"/>
			<path fill="#0F213D" d="M70.517,49.484h-8.031v-0.916h8.031V49.484z M69.729,51.977c0,0.551-0.27,0.986-0.809,1.305
				c-0.538,0.316-1.347,0.477-2.424,0.477c-1.084,0-1.894-0.16-2.429-0.477c-0.535-0.318-0.803-0.754-0.803-1.305
				c0-0.553,0.269-0.986,0.808-1.305s1.347-0.477,2.424-0.477c1.071,0,1.877,0.158,2.419,0.477S69.729,51.424,69.729,51.977z
				 M69.641,47.684h-5.899c-0.104,0-0.174-0.02-0.209-0.059c-0.036-0.039-0.054-0.111-0.054-0.215v-2.521h1.119v1.889h5.043V47.684z
				 M67.947,52.688c0.363-0.15,0.545-0.391,0.545-0.721c0-0.313-0.181-0.543-0.54-0.691c-0.36-0.15-0.846-0.225-1.456-0.225
				c-0.629,0-1.119,0.074-1.47,0.225c-0.351,0.148-0.525,0.379-0.525,0.691c0,0.33,0.175,0.57,0.525,0.721
				c0.351,0.148,0.841,0.223,1.47,0.223C67.074,52.91,67.558,52.836,67.947,52.688z"/>
			<path fill="#0F213D" d="M81.828,49.631h-2.024v1.041c0.824,0.299,1.236,0.766,1.236,1.402c0,0.512-0.27,0.92-0.809,1.227
				c-0.538,0.305-1.347,0.457-2.424,0.457c-1.084,0-1.894-0.152-2.429-0.457c-0.535-0.307-0.803-0.715-0.803-1.227
				c0-0.313,0.106-0.59,0.321-0.834c0.214-0.242,0.528-0.436,0.944-0.578v-1.031h-2.045v-0.887h8.031V49.631z M81.001,46.457
				c0,0.506-0.286,0.908-0.856,1.207c-0.552,0.299-1.331,0.447-2.337,0.447c-1.012,0-1.794-0.148-2.346-0.447
				c-0.564-0.299-0.847-0.701-0.847-1.207c0-0.48,0.282-0.873,0.847-1.178c0.577-0.305,1.359-0.459,2.346-0.459
				c0.98,0,1.759,0.154,2.337,0.459C80.715,45.578,81.001,45.971,81.001,46.457z M79.239,47.08c0.182-0.072,0.321-0.156,0.418-0.254
				c0.098-0.098,0.146-0.211,0.146-0.34c0-0.137-0.049-0.258-0.146-0.365c-0.097-0.107-0.233-0.199-0.408-0.273
				c-0.176-0.074-0.387-0.131-0.633-0.17c-0.247-0.039-0.517-0.059-0.809-0.059c-0.604,0-1.087,0.076-1.45,0.229
				s-0.545,0.365-0.545,0.639c0,0.129,0.049,0.242,0.146,0.34c0.098,0.098,0.234,0.182,0.409,0.254
				c0.175,0.07,0.386,0.125,0.633,0.16c0.246,0.035,0.516,0.053,0.808,0.053s0.56-0.018,0.804-0.053
				C78.854,47.205,79.063,47.15,79.239,47.08z M79.259,52.697c0.363-0.131,0.545-0.342,0.545-0.633c0-0.273-0.181-0.48-0.54-0.623
				c-0.36-0.143-0.846-0.215-1.456-0.215c-0.629,0-1.119,0.072-1.47,0.215s-0.525,0.35-0.525,0.623c0,0.291,0.175,0.504,0.525,0.637
				s0.841,0.199,1.47,0.199C78.411,52.9,78.895,52.832,79.259,52.697z M78.723,49.631h-1.801v0.807
				c0.137-0.012,0.277-0.023,0.424-0.033c0.146-0.01,0.3-0.016,0.462-0.016s0.319,0.006,0.473,0.016
				c0.152,0.01,0.3,0.021,0.442,0.033V49.631z"/>
			<path fill="#0F213D" d="M87.679,46.934h-5.092v-0.799h5.092V46.934z M87.396,48.549c0,0.363-0.198,0.676-0.594,0.936
				c-0.403,0.252-0.961,0.379-1.675,0.379c-0.363,0-0.687-0.033-0.969-0.102s-0.52-0.162-0.71-0.283
				c-0.192-0.119-0.338-0.26-0.438-0.418s-0.151-0.33-0.151-0.512c0-0.174,0.049-0.342,0.146-0.5
				c0.098-0.16,0.241-0.297,0.434-0.414c0.19-0.117,0.428-0.209,0.71-0.277s0.608-0.104,0.979-0.104
				c0.363,0,0.687,0.035,0.969,0.104s0.519,0.16,0.711,0.277c0.191,0.117,0.337,0.254,0.438,0.414
				C87.346,48.207,87.396,48.375,87.396,48.549z M86.472,45.648h-2.716V44.84h2.716V45.648z M89.46,53.242
				c0,0.104-0.021,0.174-0.063,0.213s-0.111,0.059-0.209,0.059h-5.13c-0.104,0-0.176-0.02-0.215-0.059s-0.059-0.109-0.059-0.213
				v-2.979h1.101v0.758h3.485v-0.758h1.09V53.242z M85.945,48.969c0.215-0.084,0.321-0.221,0.321-0.41
				c0-0.174-0.105-0.314-0.316-0.418s-0.484-0.156-0.822-0.156c-0.351,0-0.628,0.053-0.832,0.156
				c-0.205,0.104-0.307,0.244-0.307,0.418c0,0.189,0.102,0.326,0.307,0.41c0.204,0.084,0.481,0.125,0.832,0.125
				C85.498,49.094,85.771,49.053,85.945,48.969z M88.37,52.658V51.85h-3.485v0.809H88.37z M89.46,49.902h-1.1v-5.023h1.1v2.133
				h1.129v0.924H89.46V49.902z"/>
			<path fill="#0F213D" d="M98.814,52.629h-8.051v-0.936h1.753v-3.086h1.109v3.086h0.935v-3.086h1.119v3.086h3.135V52.629z
				 M96.361,50.564c0.123-0.688,0.218-1.402,0.282-2.141c0.065-0.74,0.107-1.455,0.127-2.143h-5.159v-0.924h6.064
				c0.182,0,0.272,0.09,0.272,0.271c-0.026,0.369-0.054,0.762-0.083,1.174s-0.063,0.836-0.102,1.27
				c-0.039,0.436-0.085,0.865-0.137,1.291c-0.052,0.424-0.11,0.824-0.175,1.201H96.361z"/>
			<path fill="#0F213D" d="M106.29,53.641h-1.129v-1.898h-5.004v-0.924h1.12v-0.994h-2.016V48.91h8.031v0.914h-2.005v0.994h0.729
				c0.182,0,0.272,0.09,0.272,0.271V53.641z M106.466,46.602c0,0.547-0.286,0.984-0.856,1.314c-0.578,0.326-1.356,0.488-2.337,0.488
				c-0.5,0-0.947-0.043-1.343-0.127c-0.396-0.084-0.73-0.207-1.003-0.365c-0.272-0.16-0.482-0.35-0.628-0.57
				c-0.146-0.221-0.219-0.467-0.219-0.74c0-0.525,0.282-0.953,0.847-1.283c0.571-0.332,1.353-0.498,2.346-0.498
				s1.771,0.166,2.337,0.498C106.18,45.648,106.466,46.076,106.466,46.602z M104.704,47.303c0.376-0.162,0.564-0.389,0.564-0.682
				c0-0.154-0.049-0.291-0.146-0.408c-0.097-0.117-0.233-0.217-0.408-0.301c-0.176-0.086-0.387-0.148-0.633-0.191
				c-0.247-0.041-0.517-0.063-0.809-0.063c-0.604,0-1.087,0.084-1.45,0.254c-0.363,0.168-0.545,0.404-0.545,0.709
				c0,0.15,0.049,0.281,0.146,0.395c0.098,0.115,0.234,0.209,0.409,0.287s0.386,0.139,0.633,0.182
				c0.246,0.041,0.516,0.063,0.808,0.063C103.883,47.547,104.359,47.465,104.704,47.303z M104.217,50.818v-0.994h-1.859v0.994
				H104.217z"/>
			<path fill="#0F213D" d="M110.798,51.236c0.609-0.318,1.151-0.709,1.625-1.174c0.474-0.463,0.86-0.99,1.159-1.582
				c-0.234,0.059-0.479,0.098-0.735,0.113c-0.257,0.016-0.515,0.023-0.774,0.023h-1.012v-0.865h1.421c0.272,0,0.522-0.008,0.75-0.02
				c0.227-0.014,0.46-0.047,0.7-0.098c0.065-0.215,0.119-0.434,0.161-0.658c0.042-0.223,0.073-0.455,0.093-0.695h-2.843v-0.896
				h3.777c0.181,0,0.272,0.092,0.272,0.273c-0.072,1.285-0.403,2.457-0.993,3.514c-0.591,1.059-1.486,1.992-2.687,2.805
				L110.798,51.236z M117.991,53.592h-1.1V48.91h-1.733v-0.984h1.733v-3.047h1.1V53.592z"/>
			<path fill="#0F213D" d="M125.107,53.592h-1.091v-2.93h-1.83v2.861h-1.109v-2.861h-2.016v-0.936h8.031v0.936h-1.985V53.592z
				 M126.09,48.346c0,0.104-0.021,0.174-0.063,0.213c-0.043,0.039-0.112,0.059-0.21,0.059h-5.5c-0.104,0-0.174-0.018-0.209-0.053
				c-0.036-0.035-0.054-0.105-0.054-0.209v-2.932c0-0.096,0.02-0.166,0.059-0.209c0.039-0.041,0.11-0.063,0.214-0.063h5.49
				c0.182,0,0.272,0.09,0.272,0.271V48.346z M125,47.693v-1.627h-3.846v1.627H125z"/>
			<path fill="#0F213D" d="M133.381,51.119c-0.136,0.033-0.308,0.068-0.516,0.107s-0.435,0.074-0.682,0.107
				c-0.246,0.031-0.505,0.061-0.773,0.082c-0.27,0.023-0.54,0.035-0.813,0.035l-2.083,0.01c-0.104,0-0.174-0.02-0.209-0.059
				c-0.036-0.039-0.054-0.111-0.054-0.215V45.24h1.1v5.275l1.266-0.01c0.201,0,0.426-0.01,0.672-0.029
				c0.247-0.02,0.493-0.045,0.74-0.078c0.253-0.025,0.494-0.059,0.725-0.098c0.23-0.037,0.44-0.076,0.628-0.115V51.119z
				 M134.842,53.592h-1.101v-8.713h1.101V53.592z"/>
			<path fill="#0F213D" d="M141.859,51.236c-0.272,0.039-0.594,0.082-0.964,0.131c-0.369,0.049-0.739,0.084-1.109,0.104
				c-0.39,0.025-0.813,0.039-1.271,0.043c-0.457,0.004-0.972,0.006-1.543,0.006c-0.104,0-0.174-0.02-0.209-0.059
				c-0.036-0.039-0.054-0.111-0.054-0.215V45.57c0-0.098,0.02-0.166,0.059-0.209s0.11-0.063,0.214-0.063h3.991v0.924h-3.173v1.684
				h3.057v0.926h-3.057v1.752c0.214,0,0.498-0.002,0.852-0.004c0.354-0.004,0.729-0.016,1.124-0.035
				c0.331-0.014,0.683-0.043,1.057-0.092c0.373-0.049,0.715-0.1,1.026-0.152V51.236z M143.358,53.592h-1.109v-8.713h1.109V53.592z"
				/>
		</g>
	</g>
	<path fill="#0F213D" d="M24.546,11.506c-2.608-2.46-6.113-3.965-9.975-3.965c-8.033,0-14.572,6.539-14.572,14.571
		c0,8.034,6.539,14.573,14.572,14.573c3.861,0,7.366-1.506,9.975-3.965c2.827-2.654,4.597-6.437,4.597-10.608
		C29.143,17.941,27.373,14.16,24.546,11.506z M14.571,32.088h-0.069c-1.425-0.012-2.781-0.322-3.999-0.873
		c-0.54-0.23-1.058-0.529-1.54-0.861c-0.954-0.656-1.793-1.471-2.482-2.402c-0.356-0.506-0.678-1.035-0.942-1.598
		c-0.552-1.173-0.885-2.471-0.931-3.839c-0.012-0.138-0.012-0.264-0.012-0.402c0-5.504,4.471-9.975,9.976-9.975
		c5.493,0,9.975,4.471,9.975,9.975C24.546,27.606,20.064,32.088,14.571,32.088z"/>
	<path fill="#0F213D" d="M96.418,11.506c-2.609-2.46-6.114-3.965-9.976-3.965c-6.47,0-11.975,4.24-13.859,10.09l-0.012,0.012
		l-0.046,0.149c-0.426,1.367-0.655,2.815-0.655,4.32c0,1.988,0.402,3.896,1.138,5.632c1.253-1.771,2.321-3.861,3.126-6.321
		l0.77-2.229l0.023-0.068c1.275-4.046,5.057-6.987,9.516-6.987c5.505,0,9.976,4.471,9.976,9.975c0,5.494-4.471,9.976-9.976,9.976
		c-4.953,0-9.079-3.643-9.849-8.378c-0.771,2.022-1.77,3.804-2.965,5.345c0,0.012,0,0.012,0,0.012
		c2.482,4.539,7.297,7.619,12.813,7.619c8.032,0,14.572-6.539,14.572-14.573C101.015,17.941,99.244,14.16,96.418,11.506z"/>
	<path fill="#00A19C" d="M131.399,35.369h-4.597V22.11c0-5.499-4.475-9.974-9.974-9.974c-5.5,0-9.975,4.475-9.975,9.974v13.259
		h-4.597V22.11c0-8.034,6.537-14.57,14.571-14.57s14.57,6.536,14.57,14.57V35.369z"/>
	<rect x="24.543" y="8.705" fill="#0F213D" width="4.598" height="26.664"/>
	<rect x="32.211" y="12.104" fill="#0F213D" width="4.597" height="23.266"/>
	<rect x="96.418" y="0.002" fill="#0F213D" width="4.598" height="22.108"/>
	<path fill="#00A19C" d="M175.982,36.684h-4.358c-4.112,0-7.456-3.346-7.456-7.457V3.74h4.597v25.486
		c0,1.576,1.282,2.859,2.859,2.859h4.358V36.684z"/>
	<path fill="#0F213D" d="M72.571,17.643l-0.046,0.149l-0.747,2.184C68.549,29.859,59.85,32.26,54.713,32.123
		c-0.253,0-0.506-0.023-0.736-0.035h-0.172c-4.712,0-8.665-3.287-9.711-7.677h24.283v-2.299c0-8.032-6.539-14.571-14.572-14.571
		S39.232,14.08,39.232,22.112c0,7.999,6.482,14.526,14.48,14.573c0.311,0.012,0.632,0.033,0.977,0.033
		c0.115,0.012,0.241,0.012,0.368,0.012c5.24,0,13.009-2.01,17.95-8.986c1.253-1.771,2.321-3.861,3.126-6.321l0.77-2.229l0.023-0.068
		L72.571,17.643z M53.805,12.138c4.712,0,8.665,3.275,9.699,7.677h-19.41C45.14,15.413,49.093,12.138,53.805,12.138z"/>
	<path fill="#00A19C" d="M162.313,22.112c0-8.032-6.539-14.571-14.571-14.571c-8.033,0-14.572,6.539-14.572,14.571
		c0,8.034,6.539,14.573,14.572,14.573h12.273v-4.598h-12.273c-4.712,0-8.665-3.287-9.711-7.677h24.282V22.112z M138.03,19.814
		c1.046-4.401,4.999-7.677,9.711-7.677s8.665,3.275,9.71,7.677H138.03z"/>
	<rect x="166.466" y="8.265" fill="#00A19C" width="10.915" height="4.597"/>
	<path fill="#0F213D" d="M36.822,9.212h-4.629c-0.232,0-0.422-0.188-0.422-0.422V4.161c0-0.232,0.189-0.422,0.422-0.422h4.629
		c0.233,0,0.422,0.189,0.422,0.422V8.79C37.244,9.023,37.056,9.212,36.822,9.212z"/>
</g>
</svg>
